<?xml version="1.0" encoding="UTF-8" standalone="no"?>
<svg
   xmlns:dc="http://purl.org/dc/elements/1.1/"
   xmlns:cc="http://creativecommons.org/ns#"
   xmlns:rdf="http://www.w3.org/1999/02/22-rdf-syntax-ns#"
   xmlns:svg="http://www.w3.org/2000/svg"
   xmlns="http://www.w3.org/2000/svg"
   xmlns:sodipodi="http://sodipodi.sourceforge.net/DTD/sodipodi-0.dtd"
   xmlns:inkscape="http://www.inkscape.org/namespaces/inkscape"
   id="svg8"
   version="1.1"
   viewBox="0 0 200 150"
   sodipodi:docname="main-bg.svg"
   inkscape:version="0.92.4 (5da689c313, 2019-01-14)">
  <sodipodi:namedview
     pagecolor="#ffffff"
     bordercolor="#666666"
     borderopacity="1"
     objecttolerance="10"
     gridtolerance="10"
     guidetolerance="10"
     inkscape:pageopacity="0"
     inkscape:pageshadow="2"
     inkscape:window-width="2560"
     inkscape:window-height="1377"
     id="namedview16"
     showgrid="false"
     inkscape:zoom="4.0286543"
     inkscape:cx="80.572465"
     inkscape:cy="67.944251"
     inkscape:window-x="-8"
     inkscape:window-y="-8"
     inkscape:window-maximized="1"
     inkscape:current-layer="g88" />
  <defs
     id="defs2" />
  <metadata
     id="metadata5">
    <rdf:RDF>
      <cc:Work
         rdf:about="">
        <dc:format>image/svg+xml</dc:format>
        <dc:type
           rdf:resource="http://purl.org/dc/dcmitype/StillImage" />
        <dc:title />
      </cc:Work>
    </rdf:RDF>
  </metadata>
  <g
     transform="translate(0,-147)"
     id="layer1">
    <g
       transform="translate(-11.339286,61.232143)"
       id="g88">
      <path
         style="fill:#c93c00;stroke-width:0.26458332;fill-opacity:0.66666669"
         id="path4581"
         d="M 123.83459,129.65808 88.823758,119.26356 98.486484,154.7975 72.591999,129.58819 62.641412,163.12452 53.252919,129.72858 27.388001,153.98971 37.493994,119.96623 2.6197284,128.80983 27.918596,102.43256 -6.9273529,92.431194 27.445782,83.922313 3.3178995,57.571226 38.327333,68.155213 28.664607,32.621273 54.559069,57.675255 64.509656,24.138931 73.898149,58.937686 98.361672,33.239598 89.657074,67.29722 124.53134,58.453623 99.232472,84.830887 133.18648,93.83336 98.302469,103.34114 Z"
         transform="translate(68.136603,63.026546)" />
      <path
         style="fill:#e4a100;stroke-width:0.26458332;fill-opacity:0.72549021"
         id="path4587"
         d="m 179.52199,128.78256 -18.7388,20.92446 27.08837,6.59779 -27.30493,7.75543 20.49926,19.85431 -27.58109,-6.29319 8.17843,26.26024 -20.42204,-19.02193 -6.10785,27.09387 -8.76581,-26.18051 -18.68922,20.35855 6.42359,-27.37795 -27.572218,7.46822 18.797378,-20.42294 -26.849763,-6.57297 27.066323,-7.78024 -20.499259,-18.76774 27.581089,6.29319 -8.64971,-27.51831 20.62486,19.30272 6.31772,-26.73843 9.04511,26.41186 18.70711,-19.94324 -6.06481,26.64603 z"
         transform="matrix(1.0430811,0.05753867,-0.05634723,1.0651367,1.5854631,-19.509085)" />
      <path
         style="fill:#ffffff;stroke-width:0.26458332;fill-opacity:0.78431374"
         id="path4589"
         d="m 154.27345,113.9661 -7.03625,23.35949 23.55989,-5.43546 -17.44633,17.05249 23.65271,7.07688 -24.11373,6.18741 16.98791,17.14485 -22.93154,-6.94552 4.89797,23.8641 -16.30872,-17.31167 -7.46617,23.12122 -5.30977,-23.83542 -18.03693,17.15654 6.63406,-23.50563 -23.157685,5.68626 17.497285,-17.5614 -22.884942,-6.45761 23.395932,-5.50691 -17.037903,-18.54927 23.700303,6.80592 -5.61577,-23.28825 16.25776,17.82058 7.3407,-22.9292 5.48621,23.23914 z" />
      <path
         style="fill:#b50000;stroke-width:0.26458332;fill-opacity:1"
         id="path4605"
         d="m 137.97784,155.29427 -2.82745,-1.39522 -1.21542,2.84212 -1.11127,-2.95882 -2.92695,1.23047 1.37599,-2.83405 -2.88668,-1.19897 3.03016,-1.0406 -1.17997,-2.90564 2.82746,1.28181 1.21541,-2.84213 1.04891,2.90666 2.86978,-1.11724 -1.31881,2.83424 2.88667,1.19896 -3.03015,1.05316 z" />
      <circle
         id="path3715"
         cx="71.154015"
         cy="192.58408"
         style="fill:#000000;stroke-width:0.33377033"
         r="41.482883" />
      <path
         style="fill:none;stroke:#000000;stroke-width:0.26458332px;stroke-linecap:butt;stroke-linejoin:miter;stroke-opacity:1"
         d="M 66.901784,171.88988 Z"
         id="path4595" />
      <path
         style="fill:none;stroke:#000000;stroke-width:0.1726886px;stroke-linecap:butt;stroke-linejoin:miter;stroke-opacity:1"
         d="m 106.75318,178.01534 c 7.47342,-3.36711 13.54305,2.49721 22.42027,-10.10134 4.33724,-8.89801 3.591,-11.58906 4.89525,-16.78377"
         id="path4599" />
    </g>
  </g>
</svg>
